# xmcd
#
# Track frame offsets:
#   150
#   10996
#   22006
#   33127
#   46047
#   58991
#   70090
#   81285
#   89560
#   100573
#   112283
#   122405
#   133695
#   144494
#   156111
#   168903
#   180330
#   189337
#   198916
#   211213
#   224191
#   234891
#   245843
#   254797
#
# Disc length: 3522 seconds
#
# Revision: 0
# Processed by: cddbd v1.5.2PL0 Copyright (c) Steve Scherf et al.
# Submitted via: uFREEDB 1.6.0
#
DISCID=560dc018
DTITLE=Reeves, Jim - Moonlight and Roses and The Jim Reeves Way
DYEAR=1900
DGENRE=Country
TTITLE0=Moonlight and Roses (Bring Mem'ries of You)
TTITLE1=Mexicali Rose
TTITLE2=Carolina Moon
TTITLE3=Rosa Rio
TTITLE4=Oh What It Seemed to Be
TTITLE5=What's In It for Me
TTITLE6=Roses
TTITLE7=One Dozen Roses
TTITLE8=Moon River
TTITLE9=There's a Moon Over My Shoulder
TTITLE10=It's Only a Paper Moon
TTITLE11=When I Lost You
TTITLE12=Make the World Go Away
TTITLE13=In the Misty Moonlight
TTITLE14=You'll Never Know
TTITLE15=There's That Smile Again
TTITLE16=Bolandse Nooientjie
TTITLE17=It Hurts So Much (To See You Go)
TTITLE18=I Can't Stop Loving You
TTITLE19=A Nickel Piece of Candy
TTITLE20=Where Do I Go to Throw a Picture Away
TTITLE21=Maureen
TTITLE22=Ek Verlang naar Jou
TTITLE23=Somewhere Along the Line
EXTD=
EXTT0=
EXTT1=
EXTT2=
EXTT3=
EXTT4=
EXTT5=
EXTT6=
EXTT7=
EXTT8=
EXTT9=
EXTT10=
EXTT11=
EXTT12=
EXTT13=
EXTT14=
EXTT15=
EXTT16=
EXTT17=
EXTT18=
EXTT19=
EXTT20=
EXTT21=
EXTT22=
EXTT23=
PLAYORDER=
